<svg width="20" height="20" viewBox="0 0 20 20" fill="none" xmlns="http://www.w3.org/2000/svg">
<path d="M6 2V7.17241M14 2V7.17241M5.5 9.75862H8.5M14.5 9.75862H11.5M5.5 12.8621H8.5M11.5 12.8621H14.5M4 4.58621H16C16.2652 4.58621 16.5196 4.6952 16.7071 4.8892C16.8946 5.0832 17 5.34633 17 5.62069V15.9655C17 16.2399 16.8946 16.503 16.7071 16.697C16.5196 16.891 16.2652 17 16 17H4C3.73478 17 3.48043 16.891 3.29289 16.697C3.10536 16.503 3 16.2399 3 15.9655V5.62069C3 5.34633 3.10536 5.0832 3.29289 4.8892C3.48043 4.6952 3.73478 4.58621 4 4.58621Z" stroke="#444444" stroke-width="1.5"/>
</svg>
