<svg width="20" height="20" viewBox="0 0 20 20" fill="none" xmlns="http://www.w3.org/2000/svg">
<path d="M5 4.375C5 4.04348 5.1317 3.72554 5.36612 3.49112C5.60054 3.2567 5.91848 3.125 6.25 3.125C6.58152 3.125 6.89946 3.2567 7.13388 3.49112C7.3683 3.72554 7.5 4.04348 7.5 4.375C7.5 4.70652 7.3683 5.02446 7.13388 5.25888C6.89946 5.4933 6.58152 5.625 6.25 5.625C5.91848 5.625 5.60054 5.4933 5.36612 5.25888C5.1317 5.02446 5 4.70652 5 4.375ZM6.25 1.875C5.58696 1.875 4.95107 2.13839 4.48223 2.60723C4.01339 3.07607 3.75 3.71196 3.75 4.375C3.75 5.03804 4.01339 5.67393 4.48223 6.14277C4.95107 6.61161 5.58696 6.875 6.25 6.875C6.91304 6.875 7.54893 6.61161 8.01777 6.14277C8.48661 5.67393 8.75 5.03804 8.75 4.375C8.75 3.71196 8.48661 3.07607 8.01777 2.60723C7.54893 2.13839 6.91304 1.875 6.25 1.875ZM2.8125 8.125C2.3981 8.125 2.00067 8.28962 1.70765 8.58265C1.41462 8.87567 1.25 9.2731 1.25 9.6875V9.84375C1.25 10.0156 1.25 10.9969 1.90875 11.9438C2.38187 12.6238 3.14813 13.2231 4.34562 13.5312C4.58705 13.0697 4.966 12.6947 5.43 12.4581C3.97375 12.3013 3.28188 11.7288 2.935 11.23C2.65583 10.8212 2.50442 10.3387 2.5 9.84375V9.6875C2.5 9.60462 2.53292 9.52513 2.59153 9.46653C2.65013 9.40792 2.72962 9.375 2.8125 9.375H6.5625C6.5625 8.93375 6.64563 8.5125 6.79688 8.125H2.8125ZM18.0912 11.9438C17.6181 12.6238 16.8519 13.2231 15.6544 13.5312C15.4129 13.0698 15.034 12.6948 14.57 12.4581C16.0262 12.3013 16.7181 11.7288 17.065 11.23C17.3442 10.8212 17.4956 10.3387 17.5 9.84375V9.6875C17.5 9.60462 17.4671 9.52513 17.4085 9.46653C17.3499 9.40792 17.2704 9.375 17.1875 9.375H13.4375C13.4375 8.93375 13.3544 8.5125 13.2031 8.125H17.1875C17.6019 8.125 17.9993 8.28962 18.2924 8.58265C18.5854 8.87567 18.75 9.2731 18.75 9.6875V9.84375C18.75 10.0156 18.75 10.9969 18.0912 11.9438ZM12.5 4.375C12.5 4.04348 12.6317 3.72554 12.8661 3.49112C13.1005 3.2567 13.4185 3.125 13.75 3.125C14.0815 3.125 14.3995 3.2567 14.6339 3.49112C14.8683 3.72554 15 4.04348 15 4.375C15 4.70652 14.8683 5.02446 14.6339 5.25888C14.3995 5.4933 14.0815 5.625 13.75 5.625C13.4185 5.625 13.1005 5.4933 12.8661 5.25888C12.6317 5.02446 12.5 4.70652 12.5 4.375ZM13.75 1.875C13.087 1.875 12.4511 2.13839 11.9822 2.60723C11.5134 3.07607 11.25 3.71196 11.25 4.375C11.25 5.03804 11.5134 5.67393 11.9822 6.14277C12.4511 6.61161 13.087 6.875 13.75 6.875C14.413 6.875 15.0489 6.61161 15.5178 6.14277C15.9866 5.67393 16.25 5.03804 16.25 4.375C16.25 3.71196 15.9866 3.07607 15.5178 2.60723C15.0489 2.13839 14.413 1.875 13.75 1.875ZM10 8.125C9.66848 8.125 9.35054 8.2567 9.11612 8.49112C8.8817 8.72554 8.75 9.04348 8.75 9.375C8.75 9.70652 8.8817 10.0245 9.11612 10.2589C9.35054 10.4933 9.66848 10.625 10 10.625C10.3315 10.625 10.6495 10.4933 10.8839 10.2589C11.1183 10.0245 11.25 9.70652 11.25 9.375C11.25 9.04348 11.1183 8.72554 10.8839 8.49112C10.6495 8.2567 10.3315 8.125 10 8.125ZM7.5 9.375C7.5 8.71196 7.76339 8.07607 8.23223 7.60723C8.70107 7.13839 9.33696 6.875 10 6.875C10.663 6.875 11.2989 7.13839 11.7678 7.60723C12.2366 8.07607 12.5 8.71196 12.5 9.375C12.5 10.038 12.2366 10.6739 11.7678 11.1428C11.2989 11.6116 10.663 11.875 10 11.875C9.33696 11.875 8.70107 11.6116 8.23223 11.1428C7.76339 10.6739 7.5 10.038 7.5 9.375ZM5 14.6875C5 14.2731 5.16462 13.8757 5.45765 13.5826C5.75067 13.2896 6.1481 13.125 6.5625 13.125H13.4375C13.6427 13.125 13.8459 13.1654 14.0354 13.2439C14.225 13.3225 14.3973 13.4376 14.5424 13.5826C14.6874 13.7277 14.8025 13.9 14.8811 14.0896C14.9596 14.2791 15 14.4823 15 14.6875V14.8438C15 15.0156 15 15.9969 14.3412 16.9438C13.6537 17.9319 12.3475 18.75 10 18.75C7.65312 18.75 6.34625 17.9319 5.65875 16.9438C5 15.9969 5 15.0162 5 14.8438V14.6875ZM6.5625 14.375C6.47962 14.375 6.40013 14.4079 6.34153 14.4665C6.28292 14.5251 6.25 14.6046 6.25 14.6875V14.8438C6.25 14.9469 6.25063 15.6062 6.685 16.23C7.09125 16.8144 7.9725 17.5 10 17.5C12.0281 17.5 12.9088 16.8144 13.315 16.23C13.5942 15.8212 13.7456 15.3387 13.75 14.8438V14.6875C13.75 14.6046 13.7171 14.5251 13.6585 14.4665C13.5999 14.4079 13.5204 14.375 13.4375 14.375H6.5625Z" fill="#444444"/>
</svg>
