<svg width="20" height="20" viewBox="0 0 20 20" fill="none" xmlns="http://www.w3.org/2000/svg">
<g id="u:sign-out-alt">
<path id="Vector" d="M10.4917 10.8333L8.57499 12.7416C8.49688 12.8191 8.43489 12.9112 8.39258 13.0128C8.35027 13.1143 8.32849 13.2232 8.32849 13.3333C8.32849 13.4433 8.35027 13.5522 8.39258 13.6537C8.43489 13.7553 8.49688 13.8475 8.57499 13.9249C8.65246 14.003 8.74463 14.065 8.84618 14.1073C8.94773 14.1496 9.05665 14.1714 9.16666 14.1714C9.27667 14.1714 9.38559 14.1496 9.48714 14.1073C9.58869 14.065 9.68085 14.003 9.75832 13.9249L13.0917 10.5916C13.1675 10.5123 13.227 10.4189 13.2667 10.3166C13.35 10.1137 13.35 9.88614 13.2667 9.68325C13.227 9.58096 13.1675 9.48751 13.0917 9.40825L9.75832 6.07492C9.68062 5.99722 9.58838 5.93559 9.48687 5.89354C9.38535 5.85149 9.27654 5.82984 9.16666 5.82984C9.05677 5.82984 8.94797 5.85149 8.84645 5.89354C8.74493 5.93559 8.65269 5.99722 8.57499 6.07492C8.49729 6.15262 8.43566 6.24486 8.39361 6.34638C8.35156 6.4479 8.32991 6.5567 8.32991 6.66659C8.32991 6.77647 8.35156 6.88528 8.39361 6.98679C8.43566 7.08831 8.49729 7.18055 8.57499 7.25825L10.4917 9.16659H2.49999C2.27898 9.16659 2.06701 9.25438 1.91073 9.41067C1.75445 9.56695 1.66666 9.77891 1.66666 9.99992C1.66666 10.2209 1.75445 10.4329 1.91073 10.5892C2.06701 10.7455 2.27898 10.8333 2.49999 10.8333H10.4917ZM9.99999 1.66659C8.44257 1.65963 6.91436 2.08926 5.58871 2.90675C4.26307 3.72423 3.19303 4.89684 2.49999 6.29159C2.40053 6.4905 2.38417 6.72077 2.45449 6.93175C2.52482 7.14273 2.67608 7.31713 2.87499 7.41659C3.0739 7.51604 3.30418 7.53241 3.51515 7.46208C3.72613 7.39176 3.90053 7.2405 3.99999 7.04159C4.52682 5.97769 5.32818 5.07377 6.32128 4.42324C7.31438 3.77272 8.46318 3.39918 9.64895 3.34125C10.8347 3.28331 12.0145 3.54307 13.0663 4.09368C14.118 4.64429 15.0037 5.46578 15.6317 6.47325C16.2598 7.48072 16.6074 8.63763 16.6387 9.82441C16.6699 11.0112 16.3837 12.1848 15.8096 13.2239C15.2355 14.2631 14.3943 15.13 13.3729 15.7353C12.3516 16.3405 11.1872 16.662 9.99999 16.6666C8.75739 16.672 7.53845 16.3269 6.48307 15.671C5.42768 15.015 4.57862 14.0748 4.03332 12.9583C3.93387 12.7593 3.75947 12.6081 3.54849 12.5378C3.33751 12.4674 3.10724 12.4838 2.90832 12.5833C2.70941 12.6827 2.55815 12.8571 2.48783 13.0681C2.4175 13.2791 2.43387 13.5093 2.53332 13.7083C3.19401 15.0378 4.19792 16.1668 5.44122 16.9783C6.68451 17.7898 8.12203 18.2544 9.60509 18.3241C11.0882 18.3937 12.5629 18.0659 13.8768 17.3745C15.1907 16.6831 16.296 15.6532 17.0784 14.3914C17.8608 13.1296 18.2919 11.6817 18.3271 10.1974C18.3623 8.71314 18.0003 7.24641 17.2785 5.94895C16.5568 4.65148 15.5015 3.57039 14.2219 2.81751C12.9422 2.06462 11.4847 1.66728 9.99999 1.66659Z" fill="#D62815"/>
</g>
</svg>
