<svg width="20" height="20" viewBox="0 0 20 20" fill="none" xmlns="http://www.w3.org/2000/svg">
<path d="M10 9.79175C10.1658 9.79175 10.3247 9.8576 10.4419 9.97481C10.5592 10.092 10.625 10.251 10.625 10.4167V11.0417H11.25C11.4158 11.0417 11.5747 11.1076 11.6919 11.2248C11.8092 11.342 11.875 11.501 11.875 11.6667C11.875 11.8325 11.8092 11.9915 11.6919 12.1087C11.5747 12.2259 11.4158 12.2917 11.25 12.2917H10.625V12.9167C10.625 13.0825 10.5592 13.2415 10.4419 13.3587C10.3247 13.4759 10.1658 13.5417 10 13.5417C9.83424 13.5417 9.67527 13.4759 9.55806 13.3587C9.44085 13.2415 9.375 13.0825 9.375 12.9167V12.2917H8.75C8.58424 12.2917 8.42527 12.2259 8.30806 12.1087C8.19085 11.9915 8.125 11.8325 8.125 11.6667C8.125 11.501 8.19085 11.342 8.30806 11.2248C8.42527 11.1076 8.58424 11.0417 8.75 11.0417H9.375V10.4167C9.375 10.251 9.44085 10.092 9.55806 9.97481C9.67527 9.8576 9.83424 9.79175 10 9.79175Z" fill="#444444"/>
<path fill-rule="evenodd" clip-rule="evenodd" d="M9.99999 7.7085C8.95017 7.7085 7.94336 8.12553 7.20103 8.86787C6.45869 9.6102 6.04166 10.617 6.04166 11.6668C6.04166 12.7166 6.45869 13.7235 7.20103 14.4658C7.94336 15.2081 8.95017 15.6252 9.99999 15.6252C11.0498 15.6252 12.0566 15.2081 12.799 14.4658C13.5413 13.7235 13.9583 12.7166 13.9583 11.6668C13.9583 10.617 13.5413 9.6102 12.799 8.86787C12.0566 8.12553 11.0498 7.7085 9.99999 7.7085ZM7.29166 11.6668C7.29166 10.9485 7.577 10.2597 8.08491 9.75175C8.59282 9.24384 9.2817 8.9585 9.99999 8.9585C10.7183 8.9585 11.4072 9.24384 11.9151 9.75175C12.423 10.2597 12.7083 10.9485 12.7083 11.6668C12.7083 12.3851 12.423 13.074 11.9151 13.5819C11.4072 14.0898 10.7183 14.3752 9.99999 14.3752C9.2817 14.3752 8.59282 14.0898 8.08491 13.5819C7.577 13.074 7.29166 12.3851 7.29166 11.6668Z" fill="#444444"/>
<path fill-rule="evenodd" clip-rule="evenodd" d="M9.95666 1.04175C9.20749 1.04175 8.58332 1.04175 8.08832 1.10841C7.56499 1.17841 7.09249 1.33341 6.71332 1.71258C6.33332 2.09258 6.17832 2.56508 6.10832 3.08758C6.05832 3.45425 6.04582 3.89091 6.04249 4.39591C5.50249 4.41341 5.02082 4.44591 4.59249 4.50258C3.61582 4.63425 2.82499 4.91091 2.20082 5.53425C1.57749 6.15841 1.30082 6.94925 1.16916 7.92591C1.04166 8.87591 1.04166 10.0884 1.04166 11.6201V11.7134C1.04166 13.2451 1.04166 14.4584 1.16916 15.4076C1.30082 16.3842 1.57749 17.1751 2.20082 17.7992C2.82499 18.4226 3.61582 18.6992 4.59249 18.8309C5.54249 18.9584 6.75499 18.9584 8.28666 18.9584H11.7133C13.245 18.9584 14.4583 18.9584 15.4075 18.8309C16.3842 18.6992 17.175 18.4226 17.7992 17.7992C18.4225 17.1751 18.6992 16.3842 18.8308 15.4076C18.9583 14.4576 18.9583 13.2451 18.9583 11.7134V11.6201C18.9583 10.0884 18.9583 8.87508 18.8308 7.92591C18.6992 6.94925 18.4225 6.15841 17.7992 5.53425C17.175 4.91091 16.3842 4.63425 15.4075 4.50258C14.9262 4.44288 14.4423 4.40728 13.9575 4.39591C13.9542 3.89091 13.9408 3.45425 13.8917 3.08758C13.8217 2.56508 13.6667 2.09258 13.2867 1.71258C12.9075 1.33341 12.435 1.17925 11.9117 1.10841C11.4167 1.04175 10.7917 1.04175 10.0433 1.04175H9.95666ZM12.7067 4.37675C12.7033 3.90175 12.6917 3.54341 12.6533 3.25425C12.6008 2.87008 12.5117 2.70508 12.4033 2.59675C12.295 2.48841 12.13 2.39925 11.745 2.34675C11.3433 2.29341 10.8033 2.29175 9.99999 2.29175C9.19666 2.29175 8.65666 2.29341 8.25416 2.34758C7.86999 2.39925 7.70499 2.48841 7.59666 2.59758C7.48832 2.70591 7.39916 2.87008 7.34666 3.25425C7.30832 3.54258 7.29666 3.90091 7.29332 4.37675C7.60832 4.37508 7.93916 4.37508 8.28666 4.37508H11.7133C12.0608 4.37508 12.3917 4.37508 12.7067 4.37675ZM3.08499 6.41841C3.43749 6.06591 3.92082 5.85425 4.75916 5.74175C5.61582 5.62675 6.74416 5.62508 8.33332 5.62508H11.6667C13.2558 5.62508 14.385 5.62675 15.2417 5.74175C16.0792 5.85425 16.5625 6.06591 16.915 6.41841C17.2675 6.77091 17.4792 7.25425 17.5917 8.09258C17.7067 8.94841 17.7083 10.0776 17.7083 11.6667C17.7083 13.2559 17.7067 14.3851 17.5917 15.2417C17.4792 16.0792 17.2675 16.5626 16.915 16.9151C16.5625 17.2676 16.0792 17.4792 15.2408 17.5917C14.385 17.7067 13.2558 17.7084 11.6667 17.7084H8.33332C6.74416 17.7084 5.61582 17.7067 4.75832 17.5917C3.92082 17.4792 3.43749 17.2676 3.08499 16.9151C2.73249 16.5626 2.52082 16.0792 2.40832 15.2409C2.29332 14.3851 2.29166 13.2559 2.29166 11.6667C2.29166 10.0776 2.29332 8.94925 2.40832 8.09175C2.52082 7.25425 2.73249 6.77091 3.08499 6.41841Z" fill="#444444"/>
</svg>
