<svg width="20" height="20" viewBox="0 0 20 20" fill="none" xmlns="http://www.w3.org/2000/svg">
<path d="M15 10.9834V8.33341C14.9988 7.15268 14.5798 6.01047 13.8172 5.10906C13.0546 4.20765 11.9976 3.6052 10.8333 3.40841V2.50008C10.8333 2.27907 10.7455 2.06711 10.5893 1.91083C10.433 1.75455 10.221 1.66675 10 1.66675C9.779 1.66675 9.56703 1.75455 9.41075 1.91083C9.25447 2.06711 9.16668 2.27907 9.16668 2.50008V3.40841C8.00246 3.6052 6.94545 4.20765 6.18283 5.10906C5.42022 6.01047 5.00121 7.15268 5.00001 8.33341V10.9834C4.51372 11.1553 4.09251 11.4735 3.79413 11.8942C3.49574 12.3149 3.33479 12.8176 3.33334 13.3334V15.0001C3.33334 15.2211 3.42114 15.4331 3.57742 15.5893C3.7337 15.7456 3.94566 15.8334 4.16668 15.8334H6.78334C6.97525 16.5396 7.39418 17.1629 7.97551 17.6074C8.55684 18.0518 9.26826 18.2926 10 18.2926C10.7318 18.2926 11.4432 18.0518 12.0245 17.6074C12.6058 17.1629 13.0248 16.5396 13.2167 15.8334H15.8333C16.0544 15.8334 16.2663 15.7456 16.4226 15.5893C16.5789 15.4331 16.6667 15.2211 16.6667 15.0001V13.3334C16.6652 12.8176 16.5043 12.3149 16.2059 11.8942C15.9075 11.4735 15.4863 11.1553 15 10.9834ZM6.66668 8.33341C6.66668 7.44936 7.01787 6.60151 7.64299 5.97639C8.26811 5.35127 9.11595 5.00008 10 5.00008C10.8841 5.00008 11.7319 5.35127 12.357 5.97639C12.9822 6.60151 13.3333 7.44936 13.3333 8.33341V10.8334H6.66668V8.33341ZM10 16.6667C9.70915 16.665 9.42382 16.5872 9.17237 16.441C8.92092 16.2948 8.7121 16.0853 8.56668 15.8334H11.4333C11.2879 16.0853 11.0791 16.2948 10.8277 16.441C10.5762 16.5872 10.2909 16.665 10 16.6667ZM15 14.1667H5.00001V13.3334C5.00001 13.1124 5.08781 12.9004 5.24409 12.7442C5.40037 12.5879 5.61233 12.5001 5.83334 12.5001H14.1667C14.3877 12.5001 14.5997 12.5879 14.7559 12.7442C14.9122 12.9004 15 13.1124 15 13.3334V14.1667Z" fill="#444444"/>
</svg>
