<svg width="20" height="20" viewBox="0 0 20 20" fill="none" xmlns="http://www.w3.org/2000/svg">
<path fill-rule="evenodd" clip-rule="evenodd" d="M5.71666 1.0416H5.82249C6.11499 1.0416 6.30332 1.0416 6.48749 1.05827C7.28051 1.13239 8.03272 1.44403 8.64582 1.95244C8.78749 2.07077 8.92082 2.2041 9.12832 2.41077L9.60832 2.8916C10.3133 3.59577 10.5842 3.8591 10.8975 4.03327C11.0792 4.1341 11.2717 4.2141 11.4717 4.2716C11.8158 4.3691 12.1933 4.37494 13.19 4.37494H13.5442C14.605 4.37494 15.4608 4.37494 16.1367 4.45994C16.8375 4.54827 17.4333 4.7366 17.9233 5.1766C18.005 5.24994 18.0833 5.32827 18.1567 5.40994C18.5975 5.89994 18.785 6.49577 18.8733 7.1966C18.9583 7.87327 18.9583 8.72827 18.9583 9.7891V11.7141C18.9583 13.2449 18.9583 14.4583 18.8308 15.4074C18.6992 16.3841 18.4225 17.1749 17.7992 17.7991C17.175 18.4224 16.3842 18.6991 15.4075 18.8308C14.4575 18.9583 13.245 18.9583 11.7133 18.9583H8.28666C6.75499 18.9583 5.54166 18.9583 4.59249 18.8308C3.61582 18.6991 2.82499 18.4224 2.20082 17.7991C1.57749 17.1749 1.30082 16.3841 1.16916 15.4074C1.04166 14.4574 1.04166 13.2449 1.04166 11.7133V5.7166C1.04166 5.05244 1.04166 4.63077 1.10999 4.2666C1.25736 3.48379 1.63748 2.76365 2.20066 2.20032C2.76384 1.63699 3.48388 1.25668 4.26666 1.1091C4.63166 1.04077 5.05332 1.04077 5.71666 1.04077V1.0416ZM5.79166 2.2916C5.02749 2.2916 4.73249 2.2941 4.49749 2.33827C3.96235 2.43943 3.47013 2.69958 3.0851 3.08476C2.70007 3.46994 2.44011 3.96226 2.33916 4.49744C2.29416 4.73244 2.29166 5.02744 2.29166 5.7916V11.6666C2.29166 13.2558 2.29332 14.3849 2.40832 15.2416C2.52082 16.0791 2.73249 16.5624 3.08499 16.9149C3.43749 17.2674 3.92082 17.4791 4.75916 17.5916C5.61582 17.7066 6.74416 17.7083 8.33332 17.7083H11.6667C13.2558 17.7083 14.385 17.7066 15.2417 17.5916C16.0792 17.4791 16.5625 17.2674 16.915 16.9149C17.2675 16.5624 17.4792 16.0791 17.5917 15.2408C17.7067 14.3849 17.7083 13.2558 17.7083 11.6666V9.8316C17.7083 8.71827 17.7075 7.9416 17.6333 7.35244C17.5608 6.77827 17.4283 6.4691 17.2275 6.24577C17.1833 6.19666 17.1366 6.14993 17.0875 6.10577C16.8642 5.90494 16.5542 5.77244 15.9808 5.69994C15.3917 5.62577 14.615 5.62494 13.5017 5.62494H13.0983C12.225 5.62494 11.6617 5.62494 11.1292 5.47327C10.8375 5.38994 10.555 5.27327 10.2892 5.12577C9.80582 4.85577 9.40749 4.45827 8.78916 3.83994L8.72499 3.77494L8.26666 3.3166C8.13281 3.17672 7.99296 3.0427 7.84749 2.91494C7.42824 2.56729 6.91391 2.35413 6.37166 2.30327C6.17858 2.291 5.98507 2.28711 5.79166 2.2916ZM9.99999 9.37494C10.1657 9.37494 10.3247 9.44079 10.4419 9.558C10.5591 9.67521 10.625 9.83418 10.625 9.99994V11.0416H11.6667C11.8324 11.0416 11.9914 11.1075 12.1086 11.2247C12.2258 11.3419 12.2917 11.5008 12.2917 11.6666C12.2917 11.8324 12.2258 11.9913 12.1086 12.1085C11.9914 12.2258 11.8324 12.2916 11.6667 12.2916H10.625V13.3333C10.625 13.499 10.5591 13.658 10.4419 13.7752C10.3247 13.8924 10.1657 13.9583 9.99999 13.9583C9.83423 13.9583 9.67526 13.8924 9.55805 13.7752C9.44084 13.658 9.37499 13.499 9.37499 13.3333V12.2916H8.33332C8.16756 12.2916 8.00859 12.2258 7.89138 12.1085C7.77417 11.9913 7.70832 11.8324 7.70832 11.6666C7.70832 11.5008 7.77417 11.3419 7.89138 11.2247C8.00859 11.1075 8.16756 11.0416 8.33332 11.0416H9.37499V9.99994C9.37499 9.83418 9.44084 9.67521 9.55805 9.558C9.67526 9.44079 9.83423 9.37494 9.99999 9.37494Z" fill="#444444"/>
</svg>
