<svg width="20" height="20" viewBox="0 0 20 20" fill="none" xmlns="http://www.w3.org/2000/svg">
<path d="M3.33332 18.3334C2.87499 18.3334 2.48249 18.1701 2.15582 17.8434C1.82916 17.5167 1.6661 17.1245 1.66666 16.6667V6.66675C1.66666 6.20842 1.82999 5.81592 2.15666 5.48925C2.48332 5.16258 2.87555 4.99953 3.33332 5.00008H6.66666V3.33342C6.66666 2.87508 6.82999 2.48258 7.15666 2.15592C7.48333 1.82925 7.87555 1.66619 8.33332 1.66675H11.6667C12.125 1.66675 12.5175 1.83008 12.8442 2.15675C13.1708 2.48342 13.3339 2.87564 13.3333 3.33342V5.00008H16.6667C17.125 5.00008 17.5175 5.16342 17.8442 5.49008C18.1708 5.81675 18.3339 6.20897 18.3333 6.66675V16.6667C18.3333 17.1251 18.17 17.5176 17.8433 17.8442C17.5167 18.1709 17.1244 18.334 16.6667 18.3334H3.33332ZM3.33332 16.6667H16.6667V6.66675H3.33332V16.6667ZM8.33332 5.00008H11.6667V3.33342H8.33332V5.00008ZM9.16666 12.5001V15.0001H10.8333V12.5001H13.3333V10.8334H10.8333V8.33342H9.16666V10.8334H6.66666V12.5001H9.16666Z" fill="#444444"/>
</svg>
