<svg width="20" height="20" viewBox="0 0 20 20" fill="none" xmlns="http://www.w3.org/2000/svg">
<path d="M5.00001 9.16675C4.83519 9.16675 4.67408 9.21562 4.53703 9.30719C4.39999 9.39876 4.29318 9.52891 4.23011 9.68118C4.16704 9.83345 4.15053 10.001 4.18269 10.1627C4.21484 10.3243 4.29421 10.4728 4.41075 10.5893C4.5273 10.7059 4.67578 10.7852 4.83743 10.8174C4.99909 10.8496 5.16664 10.8331 5.31891 10.77C5.47118 10.7069 5.60133 10.6001 5.6929 10.4631C5.78447 10.326 5.83334 10.1649 5.83334 10.0001C5.83334 9.77907 5.74555 9.56711 5.58927 9.41083C5.43298 9.25455 5.22102 9.16675 5.00001 9.16675ZM15 9.16675C14.8352 9.16675 14.6741 9.21562 14.537 9.30719C14.4 9.39876 14.2932 9.52891 14.2301 9.68118C14.167 9.83345 14.1505 10.001 14.1827 10.1627C14.2148 10.3243 14.2942 10.4728 14.4108 10.5893C14.5273 10.7059 14.6758 10.7852 14.8374 10.8174C14.9991 10.8496 15.1666 10.8331 15.3189 10.77C15.4712 10.7069 15.6013 10.6001 15.6929 10.4631C15.7845 10.326 15.8333 10.1649 15.8333 10.0001C15.8333 9.77907 15.7455 9.56711 15.5893 9.41083C15.433 9.25455 15.221 9.16675 15 9.16675ZM16.6667 4.16675H3.33334C2.6703 4.16675 2.03442 4.43014 1.56558 4.89898C1.09674 5.36782 0.833344 6.00371 0.833344 6.66675V13.3334C0.833344 13.9965 1.09674 14.6323 1.56558 15.1012C2.03442 15.57 2.6703 15.8334 3.33334 15.8334H16.6667C17.3297 15.8334 17.9656 15.57 18.4344 15.1012C18.9033 14.6323 19.1667 13.9965 19.1667 13.3334V6.66675C19.1667 6.00371 18.9033 5.36782 18.4344 4.89898C17.9656 4.43014 17.3297 4.16675 16.6667 4.16675ZM17.5 13.3334C17.5 13.5544 17.4122 13.7664 17.2559 13.9227C17.0997 14.079 16.8877 14.1667 16.6667 14.1667H3.33334C3.11233 14.1667 2.90037 14.079 2.74409 13.9227C2.58781 13.7664 2.50001 13.5544 2.50001 13.3334V6.66675C2.50001 6.44573 2.58781 6.23377 2.74409 6.07749C2.90037 5.92121 3.11233 5.83341 3.33334 5.83341H16.6667C16.8877 5.83341 17.0997 5.92121 17.2559 6.07749C17.4122 6.23377 17.5 6.44573 17.5 6.66675V13.3334ZM10 7.50008C9.50556 7.50008 9.02221 7.6467 8.61108 7.92141C8.19996 8.19611 7.87953 8.58656 7.69031 9.04337C7.50109 9.50019 7.45158 10.0029 7.54805 10.4878C7.64451 10.9728 7.88261 11.4182 8.23224 11.7678C8.58187 12.1175 9.02733 12.3556 9.51228 12.452C9.99724 12.5485 10.4999 12.499 10.9567 12.3098C11.4135 12.1206 11.804 11.8001 12.0787 11.389C12.3534 10.9779 12.5 10.4945 12.5 10.0001C12.5 9.33704 12.2366 8.70116 11.7678 8.23231C11.2989 7.76347 10.6631 7.50008 10 7.50008ZM10 10.8334C9.83519 10.8334 9.67408 10.7845 9.53703 10.693C9.39999 10.6014 9.29318 10.4713 9.23011 10.319C9.16704 10.1667 9.15053 9.99916 9.18269 9.83751C9.21484 9.67586 9.29421 9.52737 9.41075 9.41083C9.5273 9.29428 9.67578 9.21491 9.83743 9.18276C9.99908 9.15061 10.1666 9.16711 10.3189 9.23018C10.4712 9.29325 10.6013 9.40006 10.6929 9.53711C10.7845 9.67415 10.8333 9.83526 10.8333 10.0001C10.8333 10.2211 10.7455 10.4331 10.5893 10.5893C10.433 10.7456 10.221 10.8334 10 10.8334Z" fill="#444444"/>
</svg>
